# xmcd CD database file
#
# Track frame offsets:
#	150
#	31317
#	102014
#	158073
#	218463
#	280252
#
# Disc length: 4759 seconds
#
# Revision: 0
# Processed by: cddbd v1.5.1PL0 Copyright (c) Steve Scherf et al.
# Submitted via: CDex 1.51
#
DISCID=43129506
DTITLE=Fela Kuti - The Best Best Of Fela Kuti CD2
DYEAR=1900
DGENRE=Jazz
TTITLE0=Roforofo Fight
TTITLE1=Shuffering and Shmiling - Part 2
TTITLE2=Coffin For Head Of State - Part 2
TTITLE3=ITT - Part 2
TTITLE4=Army Arrangement - Part 2
TTITLE5=ODOO - Edit Version
EXTD=
EXTT0=
EXTT1=
EXTT2=
EXTT3=
EXTT4=
EXTT5=
PLAYORDER=
